<?xml version="1.0" encoding="UTF-8" standalone="no"?><!-- Generator: Gravit.io --><svg xmlns="http://www.w3.org/2000/svg" xmlns:xlink="http://www.w3.org/1999/xlink" style="isolation:isolate" viewBox="0 0 512 512" width="512pt" height="512pt"><defs><clipPath id="_clipPath_euGJKvshzdxHaqP9aX7aOiEXIb3JO9ix"><rect width="512" height="512"/></clipPath></defs><g clip-path="url(#_clipPath_euGJKvshzdxHaqP9aX7aOiEXIb3JO9ix)"><rect width="512" height="512" style="fill:rgb(25,25,25)" fill-opacity="0"/><path d=" M 173 65 L 115 173 L 155 344 L 196 269 L 239 357 L 239 449 L 302 389 L 342 214 L 392 278 L 406 191 L 342 65 L 173 65 Z " fill="rgb(252,138,88)" vector-effect="non-scaling-stroke" stroke-width="10" stroke="rgb(255,255,255)" stroke-linejoin="miter" stroke-linecap="square" stroke-miterlimit="3"/><clipPath id="_clipPath_hgjQfml5Rvv1KV9By7cXiJTOFAHBlIhW"><path d=" M 173 65 L 115 173 L 155 344 L 196 269 L 239 357 L 239 449 L 302 389 L 342 214 L 392 278 L 406 191 L 342 65 L 173 65 Z " fill="rgb(252,138,88)" vector-effect="non-scaling-stroke" stroke-width="10" stroke="rgb(255,255,255)" stroke-linejoin="miter" stroke-linecap="square" stroke-miterlimit="3"/></clipPath><g clip-path="url(#_clipPath_hgjQfml5Rvv1KV9By7cXiJTOFAHBlIhW)"><mask id="_mask_h7f4nZNXTgXW3V8CWGjCJuOHmHBYaXcu"><path d=" M 205 46 L 173 154 L 205 145 L 229 253 L 280 203 L 291 137 L 349 166 L 334 40 L 205 46 Z " fill="white" stroke="none"/></mask><path d=" M 205 46 L 173 154 L 205 145 L 229 253 L 280 203 L 291 137 L 349 166 L 334 40 L 205 46 Z " fill="rgb(251,214,105)"/><path d=" M 205 46 L 173 154 L 205 145 L 229 253 L 280 203 L 291 137 L 349 166 L 334 40 L 205 46 Z " fill="rgb(251,214,105)" mask="url(#_mask_h7f4nZNXTgXW3V8CWGjCJuOHmHBYaXcu)" vector-effect="non-scaling-stroke" stroke-width="20" stroke="rgb(255,255,255)" stroke-linejoin="miter" stroke-linecap="square" stroke-miterlimit="3"/></g><path d=" M 173 65 L 115 173 L 155 344 L 196 269 L 239 357 L 239 449 L 302 389 L 342 214 L 392 278 L 406 191 L 342 65 L 173 65 Z " fill="transparent" vector-effect="non-scaling-stroke" stroke-width="10" stroke="rgb(255,255,255)" stroke-linejoin="miter" stroke-linecap="square" stroke-miterlimit="3"/></g></svg>